<svg xmlns="http://www.w3.org/2000/svg" width="32" height="32" viewBox="0 0 32 32">
    <defs>
        <style>
            .cls-1{fill:#fff}
        </style>
    </defs>
    <g id="그룹_2240" transform="translate(-360 -241)">
        <g id="그룹_397" transform="translate(365.333 245)">
            <g id="그룹_396">
                <g id="그룹_395">
                    <path id="패스_2260" d="M385.943 264.333H384a1.333 1.333 0 0 1 0-2.667h.789a.533.533 0 0 0 .533-.533l.011-14.933a.533.533 0 0 0-.533-.533h-17.6a.534.534 0 0 0-.533.533v.8a1.333 1.333 0 1 1-2.667 0v-1.531a2.378 2.378 0 0 1 2.267-2.469h19.467a2.378 2.378 0 0 1 2.266 2.469v16.395a2.323 2.323 0 0 1-2.057 2.469z" class="cls-1" transform="translate(-364 -243)"/>
                </g>
            </g>
        </g>
        <path id="패스_2261" d="M383.711 246h-20.589a1.373 1.373 0 0 0-1.372 1.372v15.923a1.373 1.373 0 0 0 1.372 1.372h20.589a1.373 1.373 0 0 0 1.372-1.372v-15.923a1.373 1.373 0 0 0-1.372-1.372zm-.961 15.333a1.093 1.093 0 0 1-1.167 1H365.25a1.093 1.093 0 0 1-1.167-1v-5a1.093 1.093 0 0 1 1.167-1h16.333a1.093 1.093 0 0 1 1.167 1zM367.417 253h-2a1.334 1.334 0 0 1-1.333-1.333v-2a1.334 1.334 0 0 1 1.333-1.333h2a1.334 1.334 0 0 1 1.333 1.333v2a1.334 1.334 0 0 1-1.333 1.333zm8.651-2.916h-4.135a.85.85 0 0 1-.849-.851v-.051a.849.849 0 0 1 .849-.849h4.135a.849.849 0 0 1 .849.849v.051a.85.85 0 0 1-.85.851zM381.9 253h-9.968a.849.849 0 0 1-.849-.849v-.051a.85.85 0 0 1 .849-.851h9.968a.85.85 0 0 1 .849.851v.051a.849.849 0 0 1-.849.849z" class="cls-1" transform="translate(0.583 3)"/>
        <path id="사각형_4141" fill="none" d="M0 0H32V32H0z" transform="translate(360 241)"/>
    </g>
</svg>
