<svg xmlns="http://www.w3.org/2000/svg" width="32" height="32" viewBox="0 0 32 32">
    <defs>
        <linearGradient id="linear-gradient" x1=".5" x2=".5" y2="1" gradientUnits="objectBoundingBox">
            <stop offset="0" stop-color="#ff994a"/>
            <stop offset="1" stop-color="#ff4f19"/>
        </linearGradient>
        <style>
            .cls-1{fill:none}.cls-2{fill:url(#linear-gradient)}
        </style>
    </defs>
    <g id="그룹_2236" transform="translate(-312 -336)">
        <rect id="사각형_4185" width="1.333" class="cls-1" transform="translate(329.333 348)"/>
        <g id="그룹_508" transform="translate(316 338.667)">
            <g id="그룹_506" transform="translate(4)">
                <g id="그룹_505">
                    <g id="그룹_504">
                        <path id="패스_2372" d="M337.276 359.333H334a1.333 1.333 0 0 1 0-2.667h2.123a.533.533 0 0 0 .533-.533l.011-14.933a.533.533 0 0 0-.533-.533H321.2a.534.534 0 0 0-.533.533v2.133a1.333 1.333 0 0 1-2.667 0v-2.864a2.378 2.378 0 0 1 2.267-2.469h16.8a2.378 2.378 0 0 1 2.267 2.469v16.395a2.323 2.323 0 0 1-2.058 2.469z" class="cls-2" transform="translate(-318 -338)"/>
                    </g>
                </g>
            </g>
            <path id="패스_2373" d="M334.067 341h-16.8a2.378 2.378 0 0 0-2.267 2.469v16.388a2.475 2.475 0 0 0 2.476 2.476h16.8a2.323 2.323 0 0 0 2.057-2.469v-16.395a2.378 2.378 0 0 0-2.266-2.469zm-3.511 5.852a1.111 1.111 0 0 1-1.112 1.111h-1.852v7.3a3.021 3.021 0 0 1-2.081 2.941 2.965 2.965 0 0 1-2.013-5.571 2.9 2.9 0 0 1 2.613.179V345h3.333a1.111 1.111 0 0 1 1.112 1.111z" class="cls-2" transform="translate(-315 -337)"/>
        </g>
        <path id="사각형_4186" d="M0 0H32V32H0z" class="cls-1" transform="translate(312 336)"/>
    </g>
</svg>
