<svg xmlns="http://www.w3.org/2000/svg" id="그룹_717" width="24" height="24" viewBox="0 0 24 24">
    <defs>
        <style>
            .cls-2{fill:#fff}
        </style>
    </defs>
    <path id="사각형_4253" fill="none" d="M0 0H24V24H0z"/>
    <path id="패스_16" d="M18.258 3.52a2.246 2.246 0 0 1 3.157.056 2.105 2.105 0 0 1-.039 2.918l-.017.017-8.941 8.466L9 15.805a.438.438 0 0 1-.528-.536l.848-3.28z" class="cls-2"/>
    <g id="패스_2013">
        <path id="패스_2499" d="M17.445 20H6.555A2.56 2.56 0 0 1 4 17.445V6.555A2.56 2.56 0 0 1 6.555 4H12a1 1 0 0 1 0 2H6.555A.557.557 0 0 0 6 6.556v10.888a.557.557 0 0 0 .556.556h10.889a.556.556 0 0 0 .555-.556V13a1 1 0 0 1 2 0v4.444A2.558 2.558 0 0 1 17.445 20z" class="cls-2"/>
    </g>
</svg>
