<svg xmlns="http://www.w3.org/2000/svg" width="16" height="16" viewBox="0 0 16 16">
    <defs>
        <style>
            .cls-3{fill:#152261}
        </style>
    </defs>
    <g id="그룹_1675" transform="translate(22397 22708)">
        <circle id="타원_116" cx="8" cy="8" r="8" fill="#778eff" transform="translate(-22397 -22708)"/>
        <g id="그룹_1674" transform="translate(-22395.4 -22706.4)">
            <g id="그룹_1664" transform="translate(0)">
                <path id="사각형_4619" fill="none" d="M0 0H12.8V12.8H0z"/>
            </g>
            <g id="그룹_1673" transform="translate(0.729 1.13)">
                <g id="그룹_1668" transform="translate(1.051)">
                    <g id="그룹_1665" transform="translate(6.494 1.567)">
                        <path id="패스_2572" d="M8229.661 7727.229a.539.539 0 0 1-.293-.088l-2.122-1.4a.533.533 0 0 1 .586-.892l1.493.982.426-1.723a.533.533 0 0 1 1.035.256l-.607 2.455a.533.533 0 0 1-.518.406z" class="cls-3" transform="translate(-8227.005 -7723.707)"/>
                    </g>
                    <g id="그룹_1667">
                        <g id="그룹_1666">
                            <path id="패스_2573" d="M8223.934 7725.634a.532.532 0 0 1-.525-.441 4.054 4.054 0 0 0-7.575-1.2.533.533 0 1 1-.941-.5 5.12 5.12 0 0 1 9.567 1.52.533.533 0 0 1-.434.617.546.546 0 0 1-.092.004z" class="cls-3" transform="translate(-8214.829 -7720.769)"/>
                        </g>
                    </g>
                </g>
                <g id="그룹_1672" transform="translate(0 5.452)">
                    <g id="그룹_1669">
                        <path id="패스_2574" d="M8213.393 7734.512a.523.523 0 0 1-.129-.016.533.533 0 0 1-.39-.646l.607-2.455a.531.531 0 0 1 .324-.368.536.536 0 0 1 .487.051l2.122 1.4a.533.533 0 0 1-.586.891l-1.493-.982-.426 1.724a.535.535 0 0 1-.516.401z" class="cls-3" transform="translate(-8212.858 -7730.991)"/>
                    </g>
                    <g id="그룹_1671" transform="translate(0.653 0.223)">
                        <g id="그룹_1670">
                            <path id="패스_2575" d="M8219.135 7736.273a5.113 5.113 0 0 1-5.045-4.24.534.534 0 0 1 1.052-.183 4.054 4.054 0 0 0 7.575 1.2.533.533 0 0 1 .941.5 5.115 5.115 0 0 1-4.523 2.723z" class="cls-3" transform="translate(-8214.082 -7731.409)"/>
                        </g>
                    </g>
                </g>
            </g>
        </g>
    </g>
</svg>
